<?xml version="1.0" encoding="iso-8859-1"?>
<!-- Generator: Adobe Illustrator 18.1.1, SVG Export Plug-In . SVG Version: 6.00 Build 0)  -->
<svg version="1.1" id="Capa_1" xmlns="http://www.w3.org/2000/svg" xmlns:xlink="http://www.w3.org/1999/xlink" x="0px" y="0px"
	 viewBox="0 0 31.259 31.259" style="enable-background:new 0 0 31.259 31.259;" xml:space="preserve">
<g>
	<path style="fill:#030104;" d="M26.646,18.434c-0.569-1.265-3.535-2.389-4.557-2.744c-1.587-3.476-0.729-7.865-0.729-7.865
		c-0.281,1.247-0.641,1.725-0.641,1.725c-0.279,2.256-2.119,4.114-2.119,4.114c-0.031,0.606,0.045,1.121,0.188,1.56
		c-2.84,4.591-5.164,2.189-6.311,0.316c0.219-0.505,0.352-1.118,0.312-1.876c0,0-1.84-1.858-2.121-4.114
		c0,0-0.357-0.478-0.637-1.725c0,0,0.854,4.374-0.724,7.848c-1.222,0.524-2.452,0.896-2.452,0.896
		c-1.328,0.511-1.891,1.276-1.891,1.276c-1.963,2.912-2.193,9.398-2.193,9.398c0.026,1.482,0.662,1.634,0.662,1.634
		c4.523,2.016,11.607,2.375,11.607,2.375c7.278,0.154,12.574-2.068,12.574-2.068c0.77-0.486,0.793-0.867,0.793-0.867
		C28.943,23.667,26.646,18.434,26.646,18.434z"/>
	<path style="fill:#030104;" d="M18.833,4.99c0.078,0.291,0.548,1.783,2.12,2.455c0,0,0.058-0.611,0.229-0.669
		c0,0,0.193,0.096,0.25,0.325c0,0,0.41-3.92-1.375-5.383l0.01-0.021c-3.726-3.287-7.942-0.786-7.942-0.786
		c-3.09,1.988-2.226,6.284-2.226,6.284C15.71,7.744,18.745,5.071,18.833,4.99z"/>
</g>
<g>
</g>
<g>
</g>
<g>
</g>
<g>
</g>
<g>
</g>
<g>
</g>
<g>
</g>
<g>
</g>
<g>
</g>
<g>
</g>
<g>
</g>
<g>
</g>
<g>
</g>
<g>
</g>
<g>
</g>
</svg>
